Coordinates
version=1
nRows=13
nColumns=36
inDegrees=yes

Units are S.I. units (second, meters, Newtons, ...)
If the header above contains a line with 'inDegrees', this indicates whether rotational values are in degrees (yes) or radians (no).

endheader
time	pelvis_tilt	pelvis_list	pelvis_rotation	pelvis_tx	pelvis_ty	pelvis_tz	hip_flexion_r	hip_adduction_r	hip_rotation_r	knee_angle_r	knee_angle_r_beta	ankle_angle_r	subtalar_angle_r	mtp_angle_r	hip_flexion_l	hip_adduction_l	hip_rotation_l	knee_angle_l	knee_angle_l_beta	ankle_angle_l	subtalar_angle_l	mtp_angle_l	lumbar_extension	lumbar_bending	lumbar_rotation	arm_flex_r	arm_add_r	arm_rot_r	elbow_flex_r	pro_sup_r	arm_flex_l	arm_add_l	arm_rot_l	elbow_flex_l	pro_sup_l
      8.46666670	     -2.19406482	     -4.94437404	     -6.77270070	      0.90519639	      1.08710522	     -0.06376545	     20.05610848	      9.28056899	      5.91057091	     42.83949508	      0.74769024	     -7.26532982	    -22.76910332	     -7.49999987	      8.27572032	     -4.46824902	     -8.96205805	     12.21799822	      0.21324430	     -8.07250395	      6.63854653	     -7.49999987	    -11.05295550	      5.50580991	     -3.79871397	    -14.82297373	    -22.54895208	     21.74851212	     88.81843117	     93.83090665	      9.94064626	     -2.46639307	      7.72246867	    118.00030737	     84.20207199
      8.48333330	     -1.95323637	     -3.34142615	     -5.96905836	      0.90906258	      1.08523381	     -0.05718320	     16.76294848	      7.89614377	      5.85239834	     34.54340298	      0.60289612	     -7.59677459	    -18.67393002	     -7.49999987	      8.88285312	     -3.30988097	     -8.59370388	     13.42941561	      0.23438752	    -11.38256175	      7.17007253	     -7.49999987	    -10.65945446	      4.00248764	     -4.57690377	    -11.27210867	    -20.30881297	     23.80134788	     91.75876472	     93.63266503	      4.52804056	     -4.00014428	      8.38762894	    114.95317391	     84.06313816
      8.50000000	     -1.63810152	     -1.57785274	     -5.12285999	      0.91454191	      1.08660001	     -0.05874712	     13.73422097	      6.20748230	      5.97897354	     28.42881748	      0.49617647	     -7.83068324	    -15.39849332	     -7.49999987	      9.72396351	     -2.04541736	     -8.03564694	     16.45580988	      0.28720806	    -12.42984379	      7.65689070	     -7.49999987	    -10.09812575	      2.15410490	     -4.56845932	     -8.91719936	    -17.16765122	     23.76013258	     94.19436429	     91.41998888	     -0.16795318	     -5.50958242	      9.55173915	    110.33063275	     82.15553560
      8.51666670	     -1.51637679	     -0.01109195	     -4.15449227	      0.91242566	      1.08089730	     -0.05421719	     11.66526834	      4.80889314	      6.12115384	     24.62358614	      0.42976265	     -7.60054039	    -13.19856799	     -7.49999987	     11.51470066	     -1.22338269	     -7.88965899	     21.62960664	      0.37750785	    -11.87255175	      6.51366385	     -7.49999987	     -9.50099782	      0.36125882	     -4.10915319	     -5.61865871	    -14.05764335	     24.16978120	     97.07161267	     90.40714352	     -4.14676358	     -7.12894517	     10.75078037	    106.54845897	     81.29037937
      8.53333330	     -1.08169721	      1.35016414	     -3.11893845	      0.91285485	      1.06682660	     -0.04928106	      9.69388375	      3.71974983	      6.49286620	     22.85206010	      0.39884369	     -5.70880496	    -12.66241321	     -7.49999987	     13.42174570	     -0.81547172	     -7.68060479	     29.22532089	      0.51007807	     -8.81658132	      3.39701113	     -7.49999987	     -9.17055210	     -1.31837493	     -3.43902155	     -1.77308438	    -11.50024074	     24.51320714	     99.88349630	     89.01127774	     -6.18593967	     -9.09361834	      9.69375369	    103.46103608	     79.76681315
      8.55000000	     -0.68957265	      2.56710403	     -2.26987089	      0.91184693	      1.06434274	     -0.04724692	      8.13481225	      2.71771602	      7.29014381	     22.00476349	      0.38405557	     -3.17730290	    -12.73891919	     -7.49999987	     16.22474475	     -0.64690472	     -7.03518765	     38.43892554	      0.67088581	     -6.51438464	     -0.95412076	     -7.49999987	     -9.12951560	     -2.72829311	     -4.11640884	      3.92091902	     -8.85688973	     26.96499100	    100.61731842	     91.92116088	    -10.80940295	     -9.60322083	      8.05519337	    100.29285653	     78.17471379
      8.56666670	     -0.23494896	      3.45815497	     -1.43508067	      0.90950219	      1.04998405	     -0.04624376	      6.80544329	      2.01338081	      8.41547022	     21.85933078	      0.38151729	      1.05920872	    -13.32344948	     -7.49999987	     19.49605599	     -0.66601860	     -5.96857461	     49.40379638	      0.86225891	     -2.95264479	     -6.73824531	     -7.49999987	     -9.33055582	     -3.57590541	     -3.31792181	      7.52189460	     -5.77894129	     27.09988297	    102.66407480	     89.86858926	    -13.42722911	    -10.65222537	      8.68232948	     96.21571233	     76.86162611
      8.58333330	      0.24461073	      3.96815518	     -0.83116423	      0.90363760	      1.03763759	     -0.04401979	      6.39613591	      1.78054340	      9.63451918	     22.90248333	      0.39972374	      5.28467198	    -14.51814180	     -7.49999987	     22.70052125	     -0.77719189	     -4.53356124	     60.49352942	      1.05581126	     -1.17793821	    -12.76261533	     -7.49999987	     -9.84996020	     -3.85372679	     -2.00735979	     11.83286305	     -3.21928934	     26.53645465	    104.35344674	     89.40651778	    -16.16821723	    -11.10761850	      7.99750303	     93.25775053	     76.30163380
      8.60000000	      1.26072202	      4.34524520	     -0.70433253	      0.90299145	      1.03478915	     -0.03658095	      5.52400454	      1.51316012	     10.26040914	     23.76264350	      0.41473637	      9.77501302	    -14.42403888	     -7.49999987	     25.01800745	     -0.88507203	     -2.84587265	     70.59627957	      1.23213752	     -0.48254330	    -15.99783848	     -7.49999987	    -11.23748249	     -4.17070883	     -0.93691712	     16.55968021	     -0.84526903	     26.14893125	    105.28494004	     88.36684112	    -18.39962924	    -12.08994075	      7.43441424	     89.64555183	     75.41301193
      8.61666670	      2.25677184	      4.57215970	     -0.84692396	      0.90431347	      1.02765454	     -0.03259992	      4.97057321	      1.55597690	     10.29177720	     25.10565639	      0.43817636	     13.35837789	    -14.32213451	     -7.49999987	     26.74638345	     -1.10203986	     -1.49395066	     78.92525967	      1.37750564	      0.29197828	    -17.53523127	     -7.49999987	    -12.64846299	     -4.29962676	      0.31639972	     21.83375407	      0.44183861	     25.81733169	    106.38991503	     88.37552912	    -19.60434030	    -13.64096494	      7.87292939	     84.54953478	     75.38802169
      8.63333330	      3.09368318	      4.78700658	     -0.81487609	      0.89594298	      1.02122398	     -0.03049342	      5.03462673	      1.49695970	      9.86980680	     26.80454784	      0.46782761	     16.91331732	    -13.27138845	     -7.49999987	     28.53327632	     -0.84716077	     -0.14039430	     86.47297069	      1.50923805	      0.58732194	    -15.92329720	     -7.49999987	    -14.14551858	     -4.37624496	      1.56188928	     27.36953956	      1.07155455	     25.00260121	    107.90441042	     88.48878809	    -20.16069629	    -15.42816648	      8.58220899	     79.90866344	     75.46284031
      8.65000000	      3.81168861	      4.86063021	     -0.98711279	      0.89640085	      1.01057369	     -0.03235267	      5.37075911	      1.46171248	      9.09325209	     29.05033250	      0.50702395	     20.30661749	    -11.90126246	     -7.49999987	     30.15865465	     -0.45050434	      0.82695139	     92.64774747	      1.61700824	     -0.15454243	    -12.92954277	     -7.49999987	    -15.34633760	     -4.07458514	      3.07473766	     32.33268400	      1.08354492	     23.64690212	    110.23778907	     88.67036859	    -20.06895320	    -18.07637852	     11.63971545	     75.98805335	     75.48231804
      8.66666670	      4.13330367	      4.79452514	     -1.01590071	      0.89339426	      1.00199573	     -0.03015677	      6.29292480	      1.70181993	      8.43482159	     31.48755454	      0.54956150	     23.30396420	    -11.14353718	     -7.49999987	     32.38264794	     -0.38681135	      1.43192303	     97.72994984	      1.70570940	     -0.49659285	    -10.25758636	     -7.49999987	    -16.22900691	     -3.63027062	      3.71760338	     37.13839262	      1.19259629	     23.02273939	    111.75337708	     87.65583509	    -18.22785781	    -21.47902289	     16.61265395	     71.82283101	     74.11974385
